/* XPM */
static char *e51d7e46abda4634fbf0efe056ee6affj0s796GosHU8Krcc[] = {
/* columns rows colors chars-per-pixel */
"32 32 173 2 ",
"   c #4D0001",
".  c #550001",
"X  c #5A0001",
"o  c #5D0102",
"O  c #5F0404",
"+  c #620003",
"@  c #650104",
"#  c #620505",
"$  c #650606",
"%  c #6E0306",
"&  c #670808",
"*  c #680808",
"=  c #6B0909",
"-  c #6D0909",
";  c #720407",
":  c #770408",
">  c #7C0509",
",  c #700A0A",
"<  c #720B0B",
"1  c #740C0C",
"2  c #760C0C",
"3  c #790D0D",
"4  c #7A0E0E",
"5  c #7C0F0E",
"6  c #7E100F",
"7  c #81060B",
"8  c #87080C",
"9  c #8D080D",
"0  c #92090E",
"q  c #97090F",
"w  c #9B0A10",
"e  c #801010",
"r  c #811110",
"t  c #821110",
"y  c #861312",
"u  c #871312",
"i  c #891413",
"p  c #8B1513",
"a  c #8E1615",
"s  c #911715",
"d  c #921816",
"f  c #941816",
"g  c #961917",
"h  c #971917",
"j  c #991A18",
"k  c #9B1B19",
"l  c #9C1B19",
"z  c #9F1C19",
"x  c #A40C13",
"c  c #A90D14",
"v  c #AD0E15",
"b  c #B50F17",
"n  c #A11D1A",
"m  c #A41D1B",
"M  c #A51E1B",
"N  c #A61F1C",
"B  c #B91018",
"V  c #BE1119",
"C  c #94301B",
"Z  c #A8201C",
"A  c #AC211E",
"S  c #AE221F",
"D  c #AF221F",
"F  c #B02320",
"G  c #B12320",
"H  c #B22320",
"J  c #B32420",
"K  c #B32520",
"L  c #B72522",
"P  c #B72622",
"I  c #BA2723",
"U  c #BA2724",
"Y  c #BC2824",
"T  c #BE2824",
"R  c #BE2925",
"E  c #C7121B",
"W  c #CB131C",
"Q  c #CE131D",
"!  c #CE1F1D",
"~  c #D7151F",
"^  c #D31E1D",
"/  c #C2231B",
"(  c #C9201C",
")  c #DB1620",
"_  c #D81E20",
"`  c #DD1E22",
"'  c #E11721",
"]  c #E61A23",
"[  c #E11D22",
"{  c #EC1925",
"}  c #C12A25",
"|  c #C32A26",
" . c #C52B26",
".. c #C62C28",
"X. c #C82C28",
"o. c #CB2C29",
"O. c #CA2D29",
"+. c #CD2E29",
"@. c #884F08",
"#. c #8D5509",
"$. c #945D0D",
"%. c #9B6511",
"&. c #A67116",
"*. c #AA7518",
"=. c #E05743",
"-. c #E15A44",
";. c #E25C46",
":. c #E45E47",
">. c #E46049",
",. c #E5634A",
"<. c #E6674D",
"1. c #E66B4F",
"2. c #E77455",
"3. c #E87C5A",
"4. c #B5821E",
"5. c #B88620",
"6. c #C29125",
"7. c #CC9C2A",
"8. c #CF9F2C",
"9. c #D4A62F",
"0. c #D9AB31",
"q. c #E2B636",
"w. c #E4B837",
"e. c #E9BD3A",
"r. c #ECC13B",
"t. c #EEC33C",
"y. c #F1C73E",
"u. c #F1C83E",
"i. c #F2C83F",
"p. c #E8815C",
"a. c #E9855E",
"s. c #E98860",
"d. c #EA8D63",
"f. c #EA9267",
"g. c #EDB279",
"h. c #EFBD81",
"j. c #DFB5B3",
"k. c #EFC283",
"l. c #F0CA88",
"z. c #F1CF8B",
"x. c #F1D58E",
"c. c #F2DA92",
"v. c #F3E599",
"b. c #CCE3EF",
"n. c #CDE4EF",
"m. c #CDE3F0",
"M. c #CFE5F1",
"N. c #D0E5F0",
"B. c #D0E4F1",
"V. c #D1E6F0",
"C. c #D4E7F1",
"Z. c #D5E9F2",
"A. c #D6E9F2",
"S. c #D7EAF3",
"D. c #D9EAF3",
"F. c #D9EBF3",
"G. c #D9EBF4",
"H. c #DAEBF4",
"J. c #DDEDF5",
"K. c #DFEEF6",
"L. c #E2EEF6",
"P. c #E5EFF6",
"I. c #E8F1F8",
"U. c #EEF5F9",
"Y. c #ECF4FA",
"T. c #EFF5FA",
"R. c #F1F7FB",
"E. c #F2F7FB",
"W. c #F4F8FB",
"Q. c #F6FAFD",
"!. c #F8FBFD",
"~. c #F9FCFD",
"^. c white",
/* pixels */
"^.^.^.^.^.^.^.^.^.^.^.^.^.^.^.^.^.^.^.^.^.^.^.^.^.^.^.^.^.^.^.^.",
"^.^.^.^.^.^.^.^.^.^.^.^.^.^.^.^.^.^.^.^.^.^.^.^.^.^.^.^.^.^.^.^.",
"^.^.^.^.^.^.^.^.^.^.^.^.^.^.^.^.^.^.^.^.Q ` ^.^.^.^.^.^.^.^.^.^.",
"^.^.^.^.^.^.^.^.^.^.( { b ^.^.^.^.^.^.0 V ] / ^.^.^.^.^.^.^.^.^.",
"^.^.^.^.^.^.^.^.^.^.! ] v 7 + ( ^ ` + 8 v { ^ ^.^.^.^.^.^.^.^.^.",
"^.^.^.^.^.^.^.^.^.^.^ ' c > o E B b X > x ~ ^ ^.^.^.^.^.^.^.^.^.",
"^.^.^.^.^.^.^.^.u.u.^ ) c > X : ; % . ; w w : u.y.^.^.^.^.^.^.^.",
"^.^.^.^.v.c.x.z.l.k.; 0 B V w . . . X + B > ,.>.;.;.;.-.-.^.^.^.",
"^.^.+.>.:.c.x.l.k.h.g.3 ; @ o . y.y.e.: 8 q c B :.;.-.-.-.=.P H ",
"^.^.O.O.o.O.O.<.i.w.x w 9 > f.s.p.3.2.1.0.B Q ~ { 4.R Z g g h g ",
"^.^.O. . ..... .9.) Q V a.d.s.a.3.2.1.<.>...{ [ 0.0.s s s s s s ",
"^.^.|  .| | | | ` y.{ | T | R a.d.+.+.p p p a y.y.y.p p p p i i ",
"Q.Q.~.l k g T T t.u.^ R R Y U Y U t t t t t t i.y.y.t t t # $ ^.",
"E.E.E.n l k k g C #.u.P P P J P P 5 6 t 6 5 t i.u.@.$ $ $ * $ !.",
"E.E.E.m n n l k k %.%.1 a a S S S 1 3 3 1 #   $.$.$.* * = = - Q.",
"U.E.U.Z n m n n k *.*.3 g s d a a o O # # # # &.&.&.* = = , - E.",
"E.U.W.m Z Z m m l 5.4.t h h g g d # # $ # & & 4.4.4.- 1 1 , 1 U.",
"U.U.U.S S Z Z Z Z 6.6.t l l h h g $ & & = = = 6.6.6.1 1 1 1 1 Y.",
"U.U.E.S H Z N Z Z 8.8.t n n h l k = = = - 1 - 8.7.7.1 3 3 3 3 I.",
"Y.T.E.H P F S H S 0.0.p m n n n k - - , 1 1 1 0.0.0.3 3 6 6 6 P.",
"Y.T.R.L H H J H D q.q.d N m m n l , 1 , 1 3 3 w.w.w.6 6 6 t t P.",
"Y.U.R.R L I I P P w.r.g H N Z Z M 1 1 3 3 3 5 r.t.t.t t t t y L.",
"S.K.K.Y Y Y Y P I u.u.g S N N N Z 3 3 5 6 6 t i.u.i.t y y y p G.",
"G.G.K.R Y Y Y I R u.t.l J H J S Z 6 6 t 6 t t t.u.i.y p a p a G.",
"Z.G.H. . .Y Y } Y y.u.n I H H S S t t t t t t i.i.u.a a a a s Z.",
"G.Z.G. .| | | } R u.u.Z L P I F F t y t p p a i.i.i.a s s s g C.",
"Z.G.H... . .}  .| u.y.F T U P L P p p i a p a i.i.i.d s g g g V.",
"D.Z.G.G.G.o.....| u.y.J I Y Y L P p p p a s s u.u.u.g k g k V.M.",
"Z.K.G.G.G.G.G.H...u.u.U | T Y Y Y s a s s s g u.y.y.k M.M.V.M.M.",
"D.Z.F.F.D.D.G.H.F.F.u. . .| } Y Y s s g g g g y.y.B.b.V.m.m.B.m.",
"G.Z.D.D.D.D.D.D.F.F.D.D.D...| | | g g k k k V.m.V.m.b.m.b.V.V.M.",
"D.H.D.D.D.D.A.D.F.Z.D.Z.Z.Z.Z.j.| g k m.V.b.b.b.b.m.m.V.V.m.V.V."
};
