/* XPM */
static char *d4e00491e6f44b4ee2aeae450cd27c5d6FU3OOJvY8rxCmgV[] = {
/* columns rows colors chars-per-pixel */
"32 32 206 2 ",
"   c #008ECC",
".  c #008EDA",
"X  c #008EDC",
"o  c #008EDD",
"O  c #338ECC",
"+  c #348ECC",
"@  c #358ECC",
"#  c #368ECC",
"$  c #388ECC",
"%  c #398ECC",
"&  c #3A8ECC",
"*  c #00A1E6",
"=  c #00A2E6",
"-  c #598ECC",
";  c #668ECC",
":  c #5FD3F8",
">  c #61D6FB",
",  c #62D6FC",
"<  c #62D7FC",
"1  c #63D7FD",
"2  c #64D8FD",
"3  c #9DECF4",
"4  c #9EEDF5",
"5  c #A0EFF5",
"6  c #B0FAFC",
"7  c #B0FAFD",
"8  c #B6FFFF",
"9  c #E2DFE1",
"0  c #CCE3EF",
"q  c #CDE4EF",
"w  c #DEEDE7",
"e  c #CDE3F0",
"r  c #CEE3F0",
"t  c #CEE4F0",
"y  c #CFE4F0",
"u  c #CEE5F0",
"i  c #CFE5F0",
"p  c #CFE5F1",
"a  c #CFE6F0",
"s  c #D0E5F0",
"d  c #D0E4F1",
"f  c #D0E5F1",
"g  c #D1E5F1",
"h  c #D0E6F0",
"j  c #D1E6F0",
"k  c #D0E6F1",
"l  c #D1E6F1",
"z  c #D1E7F1",
"x  c #D2E6F0",
"c  c #D2E6F1",
"v  c #D3E6F1",
"b  c #D2E7F1",
"n  c #D3E7F1",
"m  c #D3E7F2",
"M  c #D4E7F1",
"N  c #D5E7F1",
"B  c #D4E7F2",
"V  c #D4E8F1",
"C  c #D5E8F1",
"Z  c #D6E8F1",
"A  c #D4E8F2",
"S  c #D5E8F2",
"D  c #D5E9F2",
"F  c #D6E8F2",
"G  c #D7E8F2",
"H  c #D6E9F2",
"J  c #D7E9F2",
"K  c #D6E8F3",
"L  c #D7E8F3",
"P  c #D7E9F3",
"I  c #D7EAF2",
"U  c #D7EAF3",
"Y  c #D8E9F2",
"T  c #D8E9F3",
"R  c #D9E9F3",
"E  c #D8EAF2",
"W  c #D8EAF3",
"Q  c #D9EAF3",
"!  c #D8EBF3",
"~  c #D9EBF3",
"^  c #DAEAF3",
"/  c #DAEBF3",
"(  c #DBEBF3",
")  c #DBECF3",
"_  c #DCECF3",
"`  c #DDECF3",
"'  c #D8EAF4",
"]  c #D9EAF4",
"[  c #D9EBF4",
"{  c #DAEAF4",
"}  c #DAEBF4",
"|  c #DBEBF4",
" . c #DDEBF4",
".. c #DBECF4",
"X. c #DBEDF4",
"o. c #DCECF4",
"O. c #DDECF4",
"+. c #DDEDF4",
"@. c #DCEDF5",
"#. c #DDEDF5",
"$. c #DEEDF5",
"%. c #DEEEF4",
"&. c #DFEEF5",
"*. c #DFEEF6",
"=. c #DAFEFF",
"-. c #DBFFFF",
";. c #E8E1E1",
":. c #EEE4E3",
">. c #F3E7E4",
",. c #F4E7E4",
"<. c #F5E8E4",
"1. c #F6E8E4",
"2. c #FAEAE5",
"3. c #FDEDE6",
"4. c #FFEDE6",
"5. c #FFFFEE",
"6. c #E0EEF5",
"7. c #E0EEF6",
"8. c #E1EEF6",
"9. c #E1EFF6",
"0. c #E2EEF6",
"q. c #E2EFF6",
"w. c #E3EFF6",
"e. c #E5EFF6",
"r. c #E3F0F6",
"t. c #E4F0F6",
"y. c #E5F0F6",
"u. c #E4F1F6",
"i. c #E4F0F7",
"p. c #E5F0F7",
"a. c #E5F1F7",
"s. c #E6F0F7",
"d. c #E7F0F7",
"f. c #E7F1F7",
"g. c #E9F2F7",
"h. c #E8F1F8",
"j. c #E9F1F8",
"k. c #E8F2F8",
"l. c #E9F2F8",
"z. c #E9F2F9",
"x. c #EAF3F8",
"c. c #EAF3F9",
"v. c #EBF3F9",
"b. c #ECF3F9",
"n. c #EBF4F9",
"m. c #EDF4F9",
"M. c #EDF5F9",
"N. c #EEF5F9",
"B. c #EFF5F9",
"V. c #ECF4FA",
"C. c #EDF4FA",
"Z. c #EDF5FA",
"A. c #EEF5FA",
"S. c #EFF5FA",
"D. c #EEF6FA",
"F. c #EFF6FA",
"G. c #F0F6FA",
"H. c #F1F6FA",
"J. c #F0F7FA",
"K. c #F1F7FA",
"L. c #F0F6FB",
"P. c #F0F7FB",
"I. c #F1F7FB",
"U. c #F2F7FA",
"Y. c #F2F6FB",
"T. c #F2F7FB",
"R. c #F3F7FB",
"E. c #F1F8FB",
"W. c #F2F8FA",
"Q. c #F2F8FB",
"!. c #F3F8FB",
"~. c #F4F8FB",
"^. c #F4F9FB",
"/. c #F5F9FB",
"(. c #F3F8FC",
"). c #F4F8FC",
"_. c #F5F8FC",
"`. c #F4F9FC",
"'. c #F5F9FC",
"]. c #F6F9FC",
"[. c #F5FAFC",
"{. c #F6FAFC",
"}. c #F7FBFC",
"|. c #F6FAFD",
" X c #F7FAFD",
".X c #F6FBFD",
"XX c #F7FBFD",
"oX c #F8FBFD",
"OX c #F9FBFD",
"+X c #F8FCFD",
"@X c #F9FCFD",
"#X c #FAFCFD",
"$X c #FBFCFD",
"%X c #FBFDFD",
"&X c #F9FCFE",
"*X c #FAFCFE",
"=X c #FBFCFE",
"-X c #FAFDFE",
";X c #FBFDFE",
":X c #FCFDFE",
">X c #FCFEFE",
",X c #FDFEFE",
"<X c #FDFEFF",
"1X c #FDFFFF",
"2X c #FEFFFF",
"3X c white",
/* pixels */
"3X3X3X3X3X3X3X3X3X3X3X3X3X3X3X3X3X3X3X3X3X3X3X3X3X3X3X3X3X3X3X3X",
"3X3X3X3X3X3X3X3X3X3X3X3X3X3X3X3X3X3X3X3X3X3X3X3X3X3X3X3X3X3X3X3X",
"3X3X3X3X3X3X3X3X3X3X3X3X3X3X3X3X3X3X3X3X3X3X3X3X3X3X3X3X3X3X3X3X",
"3X3X3X3X3X3X3X3X3X3X3X3X3X3X3X3X3X3X3X3X3X3X3X3X3X3X3X3X3X3X3X3X",
"3X3X3X3X3X3X3X3X3X3X3X3X3X3X3X3X3X3X3X3X3X3X3X3X3X3X3X3X3X3X3X3X",
"3X3X3X3X3X3X3X3X3X3X3X3X3X3X3X3X3X3X3X3X3X3X3X3X3X3X3X3X3X3X3X3X",
"3X3X3X3X3X3X3X3X3X3X3X3X3X3X3X3X3X3X3X3X3X3X3X3X3X3X3X3X3X3X3X3X",
"3X3X3X3X3X3X3X3X3X3X3X3X3X3X3X3X3X3X3X3X3X3X3X3X3X3X3X3X3X3X3X3X",
"3X3X3X3X3X3X3X3X3X3X3X3X3X3X3X3X3X3X3X3X3X3X3X3X3X3X3X3X3X3X3X3X",
"3X3X3X3X3X3X3X3X5.;                 = =.3X3X3X3X3X3X3X3X3X3X3X3X",
"3X3X3X3X3X3X3X3X4.%                 o 8 3X3X3X3X3X3X3X3X3X3X3X3X",
"3X%X3X3X3X%X3X3X4.%                 = =.%X3X%X3X3X3X3X3X3X3X3X%X",
"{.{.oXoXoXoXoXoX2.%     1 oXoX3X%X%X%X%X%X%X%X%X%X3X%X%X%X%X%X3X",
"!.~.(.!.{.{.{.{.,.$     1 oXoXoXoXoXoXoX{.%X%X%X%X%X%X%X%XoX%X+X",
"I.!.!.!.R.R.{.{.,.%     , ~.oX{.{.oXoXoX%X+X{.%X%X%X%X+X%X{.{.{.",
"S.S.S.!.I.I.R.R.,.$               o 6 {.{.%X{.%XoX{.+X{.(.(.(.P.",
"S.S.S.S.D.!.!.!.>.#               . 6 {.{.{.%X{.{.{.(.(.S.S.D.D.",
"n.S.I.I.(.!.(.(.>.#               o 6 oX+X+X{.(.{.C.C.C.n.S.n.n.",
"S.S.I.I.!.!.~.~.<.#     < {.{.(.{.{.{.{.~.!.!.S.S.V.h.V.h.h.h.h.",
"S.D.!.!.!.!.~.{.<.%     < {.!.+X{.{.{.R.!.S.n.n.d.d.d.d.d.r.d.p.",
"n.S.!.!.~.{.{.{.<.%     , ~.{.~.P.R.P.I.S.g.d.d.i.i.d.e.r.r.w.w.",
"n.S.D.!.~.~.~.~.<.#     , !.!.S.C.C.h.h.p.p.p.p.e.w.&.&.w.&.&.&.",
"..&.&.r.r.r.h.n.:.#     : n.h.d.d.d.r.r.w.w.&.&.&.&.&.&. .&... .",
"G ! ! _ &.&.w.r.;.#                 o 5 w.&.&.&.] &._ _ / / ] ] ",
"U ../ ] &...&.&.;.O                 . 3 ] &. .] ] ] ] / / / B / ",
"U G ..] _ &.&. .w -                 . 3 &. .( / / / G G B B B x ",
"U ] ] ......] ..&...&...&.&...........] / G ] L G G G n B B x B ",
"U U ] ] ] ..] ..] ..] ..] ] ] ......] G / G B n n n n u n u n s ",
"U U ] ......] .._ ....] ..! ! ! ] U U U B B B n n n u n e n 0 n ",
"] G / ! ] ! / / ! ! / / G / ! G G G B B n n n n e d e u 0 e e 0 ",
"..! ! ! ! ! / G ! ! ! ! ! / / G G G n n n s n e e e e e q s n y ",
"U U ..G / ] U ! G / ! ! G z z z n u n u q 0 0 0 e e q q n s s s "
};
