/* XPM */
static char *_c1ece9e0b1d45528b07e25b13642918jHpBJQdmt9ZNEt9F[] = {
/* columns rows colors chars-per-pixel */
"32 32 100 2 ",
"   c #241D16",
".  c #711819",
"X  c #6C5141",
"o  c #7F7466",
"O  c #88171A",
"+  c #98171E",
"@  c #A51C22",
"#  c #AF1F29",
"$  c #91282B",
"%  c #BB2023",
"&  c #B92432",
"*  c #A2383C",
"=  c #CE2728",
"-  c #C42934",
";  c #D3313C",
":  c #C7324A",
">  c #DE3D48",
",  c #D43F5A",
"<  c #A5654A",
"1  c #BE7850",
"2  c #E3525F",
"3  c #E66C74",
"4  c #C2B338",
"5  c #E8D33E",
"6  c #98836B",
"7  c #BC817A",
"8  c #A6977F",
"9  c #D48B65",
"0  c #E0A17E",
"q  c #F9E545",
"w  c #88898C",
"e  c #A19A94",
"r  c #B3A897",
"t  c #A09EAA",
"y  c #BFB4A6",
"u  c #ADAEB6",
"i  c #BDBCBF",
"p  c #C79B91",
"a  c #F1848B",
"s  c #F2A495",
"d  c #D5AEA5",
"f  c #CDC0B2",
"g  c #D5C9BB",
"h  c #F3C4AB",
"j  c #E4C2BC",
"k  c #F7D3B9",
"l  c #CCC8C7",
"z  c #DCD1C4",
"x  c #D8D3D1",
"c  c #F8C5C2",
"v  c #E4D8CB",
"b  c #F4D4C8",
"n  c #F9DDD0",
"m  c #EBE0D4",
"M  c #F3E7DD",
"N  c #CCE3EF",
"B  c #CDE4EF",
"V  c #CEE3F0",
"C  c #CFE5F1",
"Z  c #D0E6F0",
"A  c #D2E6F0",
"S  c #D4E7F1",
"D  c #D4E8F2",
"F  c #D7E9F2",
"G  c #D7E8F3",
"H  c #D7EAF3",
"J  c #D9EAF3",
"K  c #DBECF3",
"L  c #D9EAF4",
"P  c #D9EBF4",
"I  c #DDEBF4",
"U  c #DDEDF4",
"Y  c #DEEDF5",
"T  c #E6E6E6",
"R  c #EFEFEE",
"E  c #E0EEF5",
"W  c #E2EEF6",
"Q  c #E5EFF6",
"!  c #E4F0F6",
"~  c #E5F0F7",
"^  c #E5F1F7",
"/  c #E7F1F7",
"(  c #E8F2F8",
")  c #EAF3F8",
"_  c #EAF3F9",
"`  c #EBF4F9",
"'  c #EEF5F9",
"]  c #ECF4FA",
"[  c #F2F7FB",
"{  c #F0F9F9",
"}  c #F2F8FB",
"|  c #F3F8FB",
" . c #F4F8FB",
".. c #F4F9FB",
"X. c #F6FAFC",
"o. c #F7FBFC",
"O. c #F6FBFD",
"+. c #F8FBFD",
"@. c #FCFEFE",
"#. c white",
/* pixels */
"#.#.#.#.#.#.#.#.#.#.#.#.T #.#.T #.#.#.#.#.#.#.#.#.#.#.#.#.#.#.#.",
"#.#.#.#.#.#.#.#.#.#.#.T g g z f T #.#.#.#.#.#.#.#.#.#.#.#.#.#.#.",
"#.#.#.#.#.#.#.#.#.#.#.g v z z g z #.#.#.#.#.#.#.#.#.#.#.#.#.#.#.",
"#.#.#.#.#.#.#.#.#.#.#.y x z y g e #.#.#.#.#.#.#.#.#.#.#.#.#.#.#.",
"#.#.#.#.#.#.#.#.#.#.#.#.e r y . # #.#.#.#.#.#.#.#.#.#.#.#.#.#.#.",
"#.#.#.#.#.#.#.#.#.#.T #.# ; ; > # & T #.#.#.#.#.#.#.#.#.#.#.#.#.",
"#.#.#.#.#.#.#.#.T T O % ; - - # @ & & T #.#.#.#.#.#.#.#.#.#.#.#.",
"#.#.#.#.#.#.#.#.T @ % - ; @ + + # # & & #.#.#.#.#.#.#.#.#.#.#.#.",
"#.#.#.#.#.#.#.T #.% $ l x M v k z x z O { #.#.#.#.#.#.#.#.#.#.#.",
"#.#.#.#.#.#.#.T i T x v l d r i l i x l i #.#.#.#.#.#.#.#.#.#.#.",
"#.#.#.#.#.T T w e i w h 9 < s 0 h n u T x l #.#.#.#.#.#.#.#.#.#.",
"#.#.k 5 4 T T o o X k h b n b k h h b 0 i i #.#.#.#.#.#.@.#.#.@.",
"X.q 5 5 q +.+.} w h b a a 1 M p 3 s s k < w #.#.X.@.@.@.@.#.@.@.",
"[ T T q q ..X.d 9 c d d f y 6 w m v y d 9 9 X.X.@.@.@.#.@.X...@.",
"[ } } [ g T T X.8 M v z e o r 6 y y f f 6 T #.+.#.@.#.X.X.X...X.",
"' ' [ [ a 3 T } T o r r g y g f X g y l z T X.+.X...X.X.X.X.} } ",
"' ' ' ' } y 7 } e z v g x m m M y M M M r b O.O.O.} | | ' ) | ' ",
"' ' [ } T } @ # 6 g g z m m M m v e 8 m v d O.} } } ' ' ' ' ] ) ",
"' ' } } } } ..# + * @ M m 6 m m r y M g d O { { ' ) ) ) ( ( ] ( ",
"' ' } } ..} ....T # @ p d p M m m o % + % = ) } ! ) ) ! ~ ( W ( ",
"' } } } ......o.p & 2 @ e p . d . - ; ; j = = ! ( ( ! ! W W W W ",
"' _ [ } ......T = - > ; z & 2 & 2 > ; > @ t i t W W Y W W Y Y Y ",
"L Y Y W ( ^ { T - > > ; z @ > 2 2 ; ; = # ! . 2 @ # . K Y Y Y I ",
"F F K Y U U U * % ; ; ; e % = & - a , 2 - T R ; # T Y K I L L L ",
"H L L L Y Y Y e 2 2 2 $ u @ & & - % 2 - + T @ # s > s T J J F F ",
"H F L Y Y Y K i g v j j j O % % & - & - t t + # - , - , T S S S ",
"H F K L Y K K T F w v e g l j f l x l l u t O @ : ; - 2 : A S A ",
"H L L L H J Y L E F K K   T K K J   J L . O + & : & , , : : C A ",
"H H K L K L K H K L K L $ $ L L L   J S $ @ + # & @ , , : : A C ",
"H H K H K H L K H K K H $ $ J S F * S S O O + + @ @ : & : # Z B ",
"L L H K K L K H K H K H * J J J G @ S Z Z Z Z V Z V V V Z V B Z ",
"L H H K F F L H H H H F F F S S Z Z Z S V B B N N B B V Z Z Z Z "
};
