/* XPM */
static char *a81b2fa20b9448df884435888cfffebb2cV8VjsqyjgDLl1k[] = {
/* columns rows colors chars-per-pixel */
"32 32 172 2 ",
"   c #CCE3EF",
".  c #CDE4EF",
"X  c #CDE3F0",
"o  c #CEE3F0",
"O  c #CEE4F0",
"+  c #CFE4F0",
"@  c #CEE5F0",
"#  c #CFE5F0",
"$  c #CFE5F1",
"%  c #CFE6F0",
"&  c #D0E5F0",
"*  c #D0E4F1",
"=  c #D0E5F1",
"-  c #D1E5F1",
";  c #D0E6F0",
":  c #D1E6F0",
">  c #D0E6F1",
",  c #D1E6F1",
"<  c #D1E7F1",
"1  c #D2E6F0",
"2  c #D2E6F1",
"3  c #D3E6F1",
"4  c #D2E7F1",
"5  c #D3E7F1",
"6  c #D3E7F2",
"7  c #D4E7F1",
"8  c #D5E7F1",
"9  c #D4E7F2",
"0  c #D4E8F1",
"q  c #D5E8F1",
"w  c #D6E8F1",
"e  c #D4E8F2",
"r  c #D5E8F2",
"t  c #D5E9F2",
"y  c #D6E8F2",
"u  c #D7E8F2",
"i  c #D6E9F2",
"p  c #D7E9F2",
"a  c #D6E8F3",
"s  c #D7E8F3",
"d  c #D7E9F3",
"f  c #D7EAF2",
"g  c #D7EAF3",
"h  c #D8E9F2",
"j  c #D8E9F3",
"k  c #D9E9F3",
"l  c #D8EAF2",
"z  c #D8EAF3",
"x  c #D9EAF3",
"c  c #D8EBF3",
"v  c #D9EBF3",
"b  c #DAEAF3",
"n  c #DAEBF3",
"m  c #DBEBF3",
"M  c #DBECF3",
"N  c #DCECF3",
"B  c #DDECF3",
"V  c #D8EAF4",
"C  c #D9EAF4",
"Z  c #D9EBF4",
"A  c #DAEAF4",
"S  c #DAEBF4",
"D  c #DBEBF4",
"F  c #DDEBF4",
"G  c #DBECF4",
"H  c #DBEDF4",
"J  c #DCECF4",
"K  c #DDECF4",
"L  c #DDEDF4",
"P  c #DCEDF5",
"I  c #DDEDF5",
"U  c #DEEDF5",
"Y  c #DEEEF4",
"T  c #DEEEF5",
"R  c #DFEEF5",
"E  c #DFEEF6",
"W  c #E0EEF5",
"Q  c #E1EFF5",
"!  c #E0EEF6",
"~  c #E1EEF6",
"^  c #E1EFF6",
"/  c #E2EEF6",
"(  c #E2EFF6",
")  c #E3EFF6",
"_  c #E5EFF6",
"`  c #E3F0F6",
"'  c #E4F0F6",
"]  c #E5F0F6",
"[  c #E4F1F6",
"{  c #E4F0F7",
"}  c #E5F0F7",
"|  c #E5F1F7",
" . c #E6F0F7",
".. c #E7F0F7",
"X. c #E7F1F7",
"o. c #E8F1F7",
"O. c #E9F2F7",
"+. c #E8F1F8",
"@. c #E9F1F8",
"#. c #E8F2F8",
"$. c #E9F2F8",
"%. c #E9F2F9",
"&. c #EAF2F8",
"*. c #EAF3F8",
"=. c #EAF3F9",
"-. c #EBF3F9",
";. c #ECF3F9",
":. c #EBF4F9",
">. c #EDF4F8",
",. c #EDF4F9",
"<. c #EDF5F9",
"1. c #EEF4F9",
"2. c #EEF5F9",
"3. c #EFF5F9",
"4. c #ECF4FA",
"5. c #EDF4FA",
"6. c #EDF5FA",
"7. c #EEF5FA",
"8. c #EFF5FA",
"9. c #EEF6FA",
"0. c #EFF6FA",
"q. c #F0F6FA",
"w. c #F1F6FA",
"e. c #F0F7FA",
"r. c #F1F7FA",
"t. c #F0F6FB",
"y. c #F0F7FB",
"u. c #F1F7FB",
"i. c #F2F7FA",
"p. c #F2F6FB",
"a. c #F2F7FB",
"s. c #F3F7FB",
"d. c #F1F8FB",
"f. c #F2F8FA",
"g. c #F2F8FB",
"h. c #F3F8FB",
"j. c #F4F8FB",
"k. c #F4F9FB",
"l. c #F5F9FB",
"z. c #F3F8FC",
"x. c #F4F8FC",
"c. c #F5F8FC",
"v. c #F4F9FC",
"b. c #F5F9FC",
"n. c #F6F9FC",
"m. c #F5FAFC",
"M. c #F6FAFC",
"N. c #F7FAFC",
"B. c #F7FBFC",
"V. c #F6FAFD",
"C. c #F7FAFD",
"Z. c #F6FBFD",
"A. c #F7FBFD",
"S. c #F8FBFD",
"D. c #F9FBFD",
"F. c #F8FCFD",
"G. c #F9FCFD",
"H. c #FAFCFD",
"J. c #FBFCFD",
"K. c #FBFDFD",
"L. c #F9FCFE",
"P. c #FAFCFE",
"I. c #FBFCFE",
"U. c #FAFDFE",
"Y. c #FBFDFE",
"T. c #FCFDFE",
"R. c #FCFEFE",
"E. c #FDFEFE",
"W. c #FDFEFF",
"Q. c #FDFFFF",
"!. c #FEFFFF",
"~. c white",
/* pixels */
"~.~.~.~.~.~.~.~.~.~.~.~.~.~.~.~.~.~.~.~.~.~.~.~.~.~.~.~.~.~.~.~.",
"~.~.~.~.~.~.~.~.~.~.~.~.~.~.~.~.~.~.~.~.~.~.~.~.~.~.~.~.~.~.~.~.",
"~.~.~.~.~.~.~.~.~.~.~.~.~.~.~.~.~.~.~.~.~.~.~.~.~.~.~.~.~.~.~.~.",
"~.~.~.~.~.~.~.~.~.~.~.~.~.~.~.~.~.~.~.~.~.~.~.~.~.~.~.~.~.~.~.~.",
"~.~.~.~.~.~.~.~.~.~.~.~.~.~.~.~.~.~.~.~.~.~.~.~.~.~.~.~.~.~.~.~.",
"~.~.~.~.~.~.~.~.~.~.~.~.~.~.~.~.~.~.~.~.~.~.~.~.~.~.~.~.~.~.~.~.",
"~.~.~.~.~.~.~.~.~.~.~.~.~.~.~.~.~.~.~.~.~.~.~.~.~.~.~.~.~.~.~.~.",
"~.~.~.~.~.~.~.~.~.~.~.~.~.~.~.~.~.~.~.~.~.~.~.~.~.~.~.~.~.~.~.~.",
"~.~.~.~.~.~.~.~.~.~.~.~.~.~.~.~.~.~.~.~.~.~.~.~.~.~.~.~.~.~.~.~.",
"~.~.~.~.~.~.~.~.~.~.~.~.~.~.~.~.~.~.~.~.~.~.~.~.~.~.~.~.~.~.~.~.",
"~.~.~.~.~.~.~.~.~.~.~.~.~.~.~.~.~.~.~.~.~.~.~.~.~.~.~.~.~.~.~.~.",
"~.K.~.~.~.K.~.~.~.K.~.K.~.K.~.~.K.~.K.~.K.~.K.~.K.~.~.~.~.~.K.~.",
"M.M.S.S.S.S.S.S.S.S.~.K.S.K.I.I.K.K.K.K.K.K.K.K.K.~.K.K.K.K.K.K.",
"h.j.z.h.M.M.M.M.M.M.j.S.M.M.M.M.M.S.S.S.M.K.K.K.K.K.K.K.K.K.K.K.",
"u.h.h.h.s.s.M.M.s.j.M.j.M.M.M.M.M.M.S.S.M.K.K.K.K.K.K.K.Z.M.M.M.",
"8.8.8.h.u.u.s.s.c.c.c.j.j.M.M.z.M.M.S.M.K.M.M.M.K.M.Z.Z.z.z.z.z.",
"8.8.8.8.d.d.h.h.h.h.M.z.M.z.z.M.M.M.S.M.S.S.S.M.M.M.z.8.8.8.8.8.",
":.8.d.u.h.h.z.M.z.z.z.M.z.M.M.M.M.M.M.S.Z.M.M.M.z.8.8.8.8.8.:.:.",
"8.8.8.h.u.h.j.j.h.j.j.j.M.s.M.M.s.M.M.s.z.h.u.8.8.%.4.%.%.X.X.X.",
":.d.h.h.h.h.j.j.M.M.z.M.M.M.M.j.M.M.M.M.h.8.8.:.X.X.X. .X.X.{ X.",
":.8.h.h.j.j.M.S.M.M.M.M.j.j.M.j.M.z.u.8.8.%.X.X. . .[ _ ~ / ` / ",
":.8.d.h.j.j.j.j.j.j.u.c.h.h.h.u.4.4.%.X.[ [ [ ` / / / R R / R R ",
"Z R R R [ _ o.>.4.u.8.4.4.%.%.X. .` ` ` _ / / R R R R R R R R D ",
"q q M R Y / / _ o.o.o.o.[ ` / ` / / ` / / R R R R R N N j j j D ",
"D D D D R R R D / / / R R R R R R / R R R R D D j j j j j j j j ",
"d q Z Z R D Z R R R R R R R R E R Z M R D F j D j j j s j 8 7 7 ",
"c d Z Z R Z R Z Z R Z R D Z P Z M Z R Z j j D j j q q 4 4 q 7 1 ",
"d d Z D D D D D D D R Z D D Z Z Z D j j j q 9 9 5 5 4 4 4 # # 1 ",
"c d D d D Z Z Z Z Z Z Z Z Z Z Z D D q d 8 8 4 4 4 4 4 X # 4 X # ",
"d d c M q Z M M c M M j Z d c q q q d 8 8 4 4 * X * X 4 X X 4 X ",
"Z Z M c M Z j M M c Z c M q q D q 5 4 4 4 1 4 * X X X X * . X 4 ",
"q Z Z Z q d Z q Z q c M q q q 5 5 4 # # .           .   1 4 . 1 "
};
