/* XPM */
static char *_5afd541f8224a50c1ede6b4fc900ee3Rnb0bpjjjDDBbkVM[] = {
/* columns rows colors chars-per-pixel */
"32 32 63 1 ",
"  c black",
". c #000900",
"X c gray5",
"o c #001C00",
"O c #151515",
"+ c gray12",
"@ c #252525",
"# c gray21",
"$ c #502D16",
"% c #006B00",
"& c #007A00",
"* c #555555",
"= c gray36",
"- c #626262",
"; c gray42",
": c #7C7C7C",
"> c #008000",
", c #088408",
"< c #229122",
"1 c #2B952B",
"2 c #349A34",
"3 c #3B9E3B",
"4 c #43A143",
"5 c #4BA54B",
"6 c #54AA54",
"7 c #5CAE5C",
"8 c #63B263",
"9 c #6BB66B",
"0 c #74BA74",
"q c #7BBD7B",
"w c #8D8D8D",
"e c #939393",
"r c #999999",
"t c #AFAFAF",
"y c #B4B4B4",
"u c #B9B9B9",
"i c #83C183",
"p c #8CC68C",
"a c #92C992",
"s c #9CCE9C",
"d c #A4D2A4",
"f c #ABD5AB",
"g c #B3D9B3",
"h c #B9DCB9",
"j c #C3C3C3",
"k c #D5D5D5",
"l c #DDDDDD",
"z c #C4E2C4",
"x c #CDE6CD",
"c c #CDE4EF",
"v c #CFE4F0",
"b c #D1E6F1",
"n c #D7E9F3",
"m c #DAEBF4",
"M c #E3E3E3",
"N c #EDEDED",
"B c #E2EEF6",
"V c #E5F0F7",
"C c #EDF4F9",
"Z c #F3F3F3",
"A c #F1F7FA",
"S c #F5F9FC",
"D c #FEFEFF",
/* pixels */
"DDDDDDDDDDDDDDDSZDDDDDDDDDDDDDDD",
"DDDDDDDDDDDDDDD rDDDDDDDDDDDDDDD",
"DDDDDDDDDDDDDDS  ZDDDDDDDDDDDDDD",
"DDDDDDDDDDDDDD >>yDDDDDDDDDDDDDD",
"DDDDDDDDDDDDDN>i0 MDDDDDDDDDDDDD",
"DDDDDDDDDDDDD pi9, SDDDDDDDDDDDD",
"DDDDDDDDDDDD 9iq97> ZDDDDDDDDDDD",
"DDDDDDDDDDD >aiq8>>> lDDDDDDDDDD",
"DDDDDDDDDD fspi0>>>>>>uDDDDDDDDD",
"DDDDDDDDM gd>>i&>>.>>>& NDDDDDDD",
"DDDDDD     @ iq>>>>   +#;lDDDDDD",
"DDDDDDDDSSD >i0>>>> ZDDDDDDDDDDD",
"SDSDSDSDDDZ%ai0>>>>>:DDDDDDDDDDD",
"AASSSSSSSD spq0>>>>>>eDDDSDSDSDS",
"AAAASSSSN dapq98>>>>>> NSDDDDSSS",
"CAAASSS ogdaiq97>>>>>>> rZSSASAA",
"CACASj>zhfsai087>>>>>>>>>> kDCAC",
"CAS  >xzhfs>>0875>>>>&>>>>>> jZC",
"N         :e>98643>>Xw-O@=:ruMSC",
"CAASDDDDSSS >986431> kCCVVVVCBVB",
"CAAAASSSSSZ q876421>> DBVVBBBBBB",
"CCAASSSSSS >087541<>>>wDBBBBBBmB",
"mmBBBVCCAN>q086522<>>>&*NBBBBmBm",
"mmmmBBmBZ pq976521<>>>>> ymmmmmm",
"mmnmBmDt >iq976421>>>>>>&>;MDmmn",
"nnnDNt &sai087542>>>>>>>>>>  MDb",
"nnM >>gdsai08654&>>>>>>>>>>>>  N",
"nnmnmmm   >>>>>>>>>>>>>   bbbvbb",
"nmmmmmmmmmmmm$$$$$$ bbnbbbbvvvvv",
"mnmmmmmmnmmmm$$$$$$ nbbbvbvvvvvv",
"mmnmmmmmmmmmn$$$$$$ bcvvvvcbccbv",
"mnmnnmnnnnnnn       vccccvccbbbb"
};
